<svg width="413" height="117" viewBox="0 0 413 117" fill="none" xmlns="http://www.w3.org/2000/svg">
<path fill-rule="evenodd" clip-rule="evenodd" d="M173.875 48H172.812L154.875 8.8125V37.5C154.875 39.3333 154.958 40.8333 155.125 42C155.333 43.125 155.688 44.0208 156.188 44.6875C156.688 45.3542 157.375 45.8333 158.25 46.125C159.125 46.4167 160.25 46.6042 161.625 46.6875V48H144.875V46.6875C146.333 46.5625 147.5 46.375 148.375 46.125C149.292 45.8333 149.979 45.3542 150.438 44.6875C150.938 44.0208 151.271 43.125 151.438 42C151.604 40.8333 151.688 39.3333 151.688 37.5V8.5625C151.688 7.27083 151.604 6.22917 151.438 5.4375C151.312 4.64583 151 4.02083 150.5 3.5625C150.042 3.10417 149.375 2.79167 148.5 2.625C147.625 2.41667 146.458 2.27083 145 2.1875V0.75H159.125L175.562 36.8125L191.438 0.75H205.562V2.1875C204.229 2.27083 203.167 2.41667 202.375 2.625C201.583 2.83333 200.958 3.16667 200.5 3.625C200.042 4.08333 199.729 4.70833 199.562 5.5C199.438 6.29167 199.375 7.3125 199.375 8.5625V40.3125C199.375 41.5625 199.458 42.5833 199.625 43.375C199.792 44.1667 200.083 44.7917 200.5 45.25C200.958 45.7083 201.583 46.0417 202.375 46.25C203.208 46.4583 204.271 46.6042 205.562 46.6875V48H185.562V46.6875C186.979 46.6042 188.104 46.4583 188.938 46.25C189.812 46.0417 190.479 45.6875 190.938 45.1875C191.396 44.6458 191.688 43.9375 191.812 43.0625C191.979 42.1458 192.062 40.9375 192.062 39.4375V7.125L173.875 48ZM232.578 23.25H231.266C231.047 22.4688 230.828 21.7812 230.609 21.1875C230.422 20.5938 230.188 20.0625 229.906 19.5938C229.656 19.0938 229.375 18.6562 229.062 18.2812C228.75 17.875 228.391 17.4531 227.984 17.0156C226.109 15.0469 223.922 14.0625 221.422 14.0625C219.766 14.0625 218.422 14.5 217.391 15.375C216.391 16.25 215.891 17.4375 215.891 18.9375C215.891 20.4062 216.5 21.7812 217.719 23.0625C218.938 24.3438 220.938 25.75 223.719 27.2812C227.281 29.2188 229.844 31.1094 231.406 32.9531C233 34.7969 233.797 36.8125 233.797 39C233.797 40.375 233.516 41.6562 232.953 42.8438C232.391 44.0312 231.625 45.0625 230.656 45.9375C229.688 46.8125 228.531 47.5 227.188 48C225.844 48.5 224.406 48.75 222.875 48.75C221.781 48.75 220.703 48.6562 219.641 48.4688C218.578 48.2812 217.547 47.9688 216.547 47.5312C216.016 47.3438 215.531 47.2031 215.094 47.1094C214.656 46.9844 214.297 46.9219 214.016 46.9219C213.609 46.9219 213.266 47.0938 212.984 47.4375C212.703 47.7812 212.547 48.2031 212.516 48.7031H211.344L209.75 37.3594H210.969C212.312 40.6406 213.844 43.0469 215.562 44.5781C217.281 46.0781 219.359 46.8281 221.797 46.8281C223.766 46.8281 225.344 46.2812 226.531 45.1875C227.75 44.0938 228.359 42.6562 228.359 40.875C228.359 40.1875 228.281 39.5781 228.125 39.0469C228 38.5156 227.812 38.0625 227.562 37.6875C226.938 36.6875 225.938 35.6562 224.562 34.5938C223.219 33.5312 221.594 32.4688 219.688 31.4062C218.188 30.625 216.906 29.8438 215.844 29.0625C214.781 28.2812 213.906 27.4688 213.219 26.625C212.562 25.7812 212.078 24.9062 211.766 24C211.453 23.0938 211.297 22.1094 211.297 21.0469C211.297 18.0781 212.328 15.7656 214.391 14.1094C215.266 13.3906 216.234 12.8438 217.297 12.4688C218.359 12.0625 219.406 11.8594 220.438 11.8594C221.375 11.8594 222.312 11.9688 223.25 12.1875C224.219 12.375 225.203 12.6562 226.203 13.0312C226.703 13.25 227.156 13.4062 227.562 13.5C227.969 13.5938 228.312 13.6406 228.594 13.6406C229.469 13.6406 230.031 13.0469 230.281 11.8594H231.406L232.578 23.25ZM29.875 93H28.8125L10.875 53.8125V82.5C10.875 84.3333 10.9583 85.8333 11.125 87C11.3333 88.125 11.6875 89.0208 12.1875 89.6875C12.6875 90.3542 13.375 90.8333 14.25 91.125C15.125 91.4167 16.25 91.6042 17.625 91.6875V93H0.875V91.6875C2.33333 91.5625 3.5 91.375 4.375 91.125C5.29167 90.8333 5.97917 90.3542 6.4375 89.6875C6.9375 89.0208 7.27083 88.125 7.4375 87C7.60417 85.8333 7.6875 84.3333 7.6875 82.5V53.5625C7.6875 52.2708 7.60417 51.2292 7.4375 50.4375C7.3125 49.6458 7 49.0208 6.5 48.5625C6.04167 48.1042 5.375 47.7917 4.5 47.625C3.625 47.4167 2.45833 47.2708 1 47.1875V45.75H15.125L31.5625 81.8125L47.4375 45.75H61.5625V47.1875C60.2292 47.2708 59.1667 47.4167 58.375 47.625C57.5833 47.8333 56.9583 48.1667 56.5 48.625C56.0417 49.0833 55.7292 49.7083 55.5625 50.5C55.4375 51.2917 55.375 52.3125 55.375 53.5625V85.3125C55.375 86.5625 55.4583 87.5833 55.625 88.375C55.7917 89.1667 56.0833 89.7917 56.5 90.25C56.9583 90.7083 57.5833 91.0417 58.375 91.25C59.2083 91.4583 60.2708 91.6042 61.5625 91.6875V93H41.5625V91.6875C42.9792 91.6042 44.1042 91.4583 44.9375 91.25C45.8125 91.0417 46.4792 90.6875 46.9375 90.1875C47.3958 89.6458 47.6875 88.9375 47.8125 88.0625C47.9792 87.1458 48.0625 85.9375 48.0625 84.4375V52.125L29.875 93ZM101.375 93H87.7344V92.0156H88.9062C89.2188 91.9844 89.4688 91.9531 89.6562 91.9219C89.875 91.8594 90.0625 91.8125 90.2188 91.7812C90.375 91.7188 90.5312 91.6406 90.6875 91.5469C90.9375 91.3906 91.125 91.2031 91.25 90.9844C91.4062 90.7344 91.4844 90.4844 91.4844 90.2344C91.4844 89.3594 91.1406 88.1406 90.4531 86.5781L88.2031 81.4688H74.2344L71.75 87.7031C71.625 88.0469 71.5156 88.4062 71.4219 88.7812C71.3594 89.125 71.3281 89.4688 71.3281 89.8125C71.3281 90.5312 71.6094 91.0781 72.1719 91.4531C72.7344 91.8281 73.6719 92.0156 74.9844 92.0156V93H64.3438V92.0156C65 91.9844 65.5625 91.875 66.0312 91.6875C66.5 91.5 66.9688 91.1094 67.4375 90.5156C67.9062 89.8906 68.4062 89.0156 68.9375 87.8906C69.5 86.7344 70.2031 85.1719 71.0469 83.2031L82.1562 56.9531H83.1875L96.5469 87.3281C96.9844 88.3281 97.3594 89.125 97.6719 89.7188C98.0156 90.3125 98.3594 90.7812 98.7031 91.125C99.0469 91.4375 99.4219 91.6562 99.8281 91.7812C100.266 91.9062 100.781 91.9844 101.375 92.0156V93ZM87.5 79.3125L81.3125 64.5469L75.125 79.3125H87.5ZM107.891 63.4219C107.891 62.4219 107.828 61.625 107.703 61.0312C107.609 60.4375 107.375 59.9688 107 59.625C106.625 59.2812 106.094 59.0469 105.406 58.9219C104.719 58.7969 103.812 58.7031 102.688 58.6406V57.5625H118.578V58.6406C117.453 58.6719 116.547 58.7656 115.859 58.9219C115.172 59.0469 114.641 59.2812 114.266 59.625C113.891 59.9688 113.641 60.4531 113.516 61.0781C113.391 61.6719 113.328 62.4531 113.328 63.4219V87.2344C113.328 88.2031 113.391 89 113.516 89.625C113.672 90.2188 113.938 90.6875 114.312 91.0312C114.688 91.375 115.219 91.625 115.906 91.7812C116.594 91.9062 117.484 91.9844 118.578 92.0156V93H102.688V92.0156C103.812 91.9844 104.719 91.9062 105.406 91.7812C106.094 91.625 106.609 91.375 106.953 91.0312C107.328 90.6875 107.578 90.2188 107.703 89.625C107.828 89.0312 107.891 88.2344 107.891 87.2344V63.4219ZM157.484 93H143.844V92.0156H145.016C145.328 91.9844 145.578 91.9531 145.766 91.9219C145.984 91.8594 146.172 91.8125 146.328 91.7812C146.484 91.7188 146.641 91.6406 146.797 91.5469C147.047 91.3906 147.234 91.2031 147.359 90.9844C147.516 90.7344 147.594 90.4844 147.594 90.2344C147.594 89.3594 147.25 88.1406 146.562 86.5781L144.312 81.4688H130.344L127.859 87.7031C127.734 88.0469 127.625 88.4062 127.531 88.7812C127.469 89.125 127.438 89.4688 127.438 89.8125C127.438 90.5312 127.719 91.0781 128.281 91.4531C128.844 91.8281 129.781 92.0156 131.094 92.0156V93H120.453V92.0156C121.109 91.9844 121.672 91.875 122.141 91.6875C122.609 91.5 123.078 91.1094 123.547 90.5156C124.016 89.8906 124.516 89.0156 125.047 87.8906C125.609 86.7344 126.312 85.1719 127.156 83.2031L138.266 56.9531H139.297L152.656 87.3281C153.094 88.3281 153.469 89.125 153.781 89.7188C154.125 90.3125 154.469 90.7812 154.812 91.125C155.156 91.4375 155.531 91.6562 155.938 91.7812C156.375 91.9062 156.891 91.9844 157.484 92.0156V93ZM143.609 79.3125L137.422 64.5469L131.234 79.3125H143.609ZM193.109 93H184.484L171.734 76.5L168.781 76.6406V87.2344C168.781 88.1719 168.828 88.9375 168.922 89.5312C169.047 90.125 169.281 90.6094 169.625 90.9844C169.969 91.3281 170.453 91.5781 171.078 91.7344C171.703 91.8594 172.531 91.9531 173.562 92.0156V93H158.75V92.0156C159.75 91.9219 160.547 91.7969 161.141 91.6406C161.766 91.4844 162.234 91.2188 162.547 90.8438C162.859 90.4688 163.062 89.9531 163.156 89.2969C163.25 88.6094 163.297 87.7031 163.297 86.5781V63.4219C163.297 62.4844 163.25 61.7344 163.156 61.1719C163.062 60.5781 162.859 60.1094 162.547 59.7656C162.234 59.4219 161.766 59.1719 161.141 59.0156C160.547 58.8594 159.75 58.7344 158.75 58.6406V57.5625H173.516C176.141 57.5625 178.484 57.9219 180.547 58.6406C182.641 59.3281 184.188 60.2656 185.188 61.4531C185.844 62.1719 186.328 63.0156 186.641 63.9844C186.953 64.9219 187.109 65.9375 187.109 67.0312C187.109 69.4688 186.344 71.3906 184.812 72.7969C183.312 74.2031 180.859 75.25 177.453 75.9375L188.469 89.5312C189.219 90.4062 189.922 91.0156 190.578 91.3594C191.266 91.7031 192.109 91.9219 193.109 92.0156V93ZM168.781 74.6719C170.031 74.6406 171.109 74.5938 172.016 74.5312C172.953 74.4688 173.766 74.375 174.453 74.25C175.172 74.0938 175.828 73.9062 176.422 73.6875C177.016 73.4688 177.625 73.1875 178.25 72.8438C179.219 72.3125 179.969 71.5312 180.5 70.5C181.031 69.4375 181.297 68.2344 181.297 66.8906C181.297 64.3594 180.5 62.5156 178.906 61.3594C177.344 60.1719 174.844 59.5781 171.406 59.5781C170.344 59.5781 169.641 59.7188 169.297 60C168.953 60.25 168.781 60.75 168.781 61.5V74.6719ZM231.406 93H217.766V92.0156H218.938C219.25 91.9844 219.5 91.9531 219.688 91.9219C219.906 91.8594 220.094 91.8125 220.25 91.7812C220.406 91.7188 220.562 91.6406 220.719 91.5469C220.969 91.3906 221.156 91.2031 221.281 90.9844C221.438 90.7344 221.516 90.4844 221.516 90.2344C221.516 89.3594 221.172 88.1406 220.484 86.5781L218.234 81.4688H204.266L201.781 87.7031C201.656 88.0469 201.547 88.4062 201.453 88.7812C201.391 89.125 201.359 89.4688 201.359 89.8125C201.359 90.5312 201.641 91.0781 202.203 91.4531C202.766 91.8281 203.703 92.0156 205.016 92.0156V93H194.375V92.0156C195.031 91.9844 195.594 91.875 196.062 91.6875C196.531 91.5 197 91.1094 197.469 90.5156C197.938 89.8906 198.438 89.0156 198.969 87.8906C199.531 86.7344 200.234 85.1719 201.078 83.2031L212.188 56.9531H213.219L226.578 87.3281C227.016 88.3281 227.391 89.125 227.703 89.7188C228.047 90.3125 228.391 90.7812 228.734 91.125C229.078 91.4375 229.453 91.6562 229.859 91.7812C230.297 91.9062 230.812 91.9844 231.406 92.0156V93ZM217.531 79.3125L211.344 64.5469L205.156 79.3125H217.531ZM279.281 60H277.531C277.24 58.9583 276.948 58.0417 276.656 57.25C276.406 56.4583 276.094 55.75 275.719 55.125C275.385 54.4583 275.01 53.875 274.594 53.375C274.177 52.8333 273.698 52.2708 273.156 51.6875C270.656 49.0625 267.74 47.75 264.406 47.75C262.198 47.75 260.406 48.3333 259.031 49.5C257.698 50.6667 257.031 52.25 257.031 54.25C257.031 56.2083 257.844 58.0417 259.469 59.75C261.094 61.4583 263.76 63.3333 267.469 65.375C272.219 67.9583 275.635 70.4792 277.719 72.9375C279.844 75.3958 280.906 78.0833 280.906 81C280.906 82.8333 280.531 84.5417 279.781 86.125C279.031 87.7083 278.01 89.0833 276.719 90.25C275.427 91.4167 273.885 92.3333 272.094 93C270.302 93.6667 268.385 94 266.344 94C264.885 94 263.448 93.875 262.031 93.625C260.615 93.375 259.24 92.9583 257.906 92.375C257.198 92.125 256.552 91.9375 255.969 91.8125C255.385 91.6458 254.906 91.5625 254.531 91.5625C253.99 91.5625 253.531 91.7917 253.156 92.25C252.781 92.7083 252.573 93.2708 252.531 93.9375H250.969L248.844 78.8125H250.469C252.26 83.1875 254.302 86.3958 256.594 88.4375C258.885 90.4375 261.656 91.4375 264.906 91.4375C267.531 91.4375 269.635 90.7083 271.219 89.25C272.844 87.7917 273.656 85.875 273.656 83.5C273.656 82.5833 273.552 81.7708 273.344 81.0625C273.177 80.3542 272.927 79.75 272.594 79.25C271.76 77.9167 270.427 76.5417 268.594 75.125C266.802 73.7083 264.635 72.2917 262.094 70.875C260.094 69.8333 258.385 68.7917 256.969 67.75C255.552 66.7083 254.385 65.625 253.469 64.5C252.594 63.375 251.948 62.2083 251.531 61C251.115 59.7917 250.906 58.4792 250.906 57.0625C250.906 53.1042 252.281 50.0208 255.031 47.8125C256.198 46.8542 257.49 46.125 258.906 45.625C260.323 45.0833 261.719 44.8125 263.094 44.8125C264.344 44.8125 265.594 44.9583 266.844 45.25C268.135 45.5 269.448 45.875 270.781 46.375C271.448 46.6667 272.052 46.875 272.594 47C273.135 47.125 273.594 47.1875 273.969 47.1875C275.135 47.1875 275.885 46.3958 276.219 44.8125H277.719L279.281 60ZM291.672 63.4219C291.672 62.4219 291.609 61.625 291.484 61.0312C291.391 60.4375 291.156 59.9688 290.781 59.625C290.406 59.2812 289.875 59.0469 289.188 58.9219C288.5 58.7969 287.594 58.7031 286.469 58.6406V57.5625H302.359V58.6406C301.234 58.6719 300.328 58.7656 299.641 58.9219C298.953 59.0469 298.422 59.2812 298.047 59.625C297.672 59.9688 297.422 60.4531 297.297 61.0781C297.172 61.6719 297.109 62.4531 297.109 63.4219V87.2344C297.109 88.2031 297.172 89 297.297 89.625C297.453 90.2188 297.719 90.6875 298.094 91.0312C298.469 91.375 299 91.625 299.688 91.7812C300.375 91.9062 301.266 91.9844 302.359 92.0156V93H286.469V92.0156C287.594 91.9844 288.5 91.9062 289.188 91.7812C289.875 91.625 290.391 91.375 290.734 91.0312C291.109 90.6875 291.359 90.2188 291.484 89.625C291.609 89.0312 291.672 88.2344 291.672 87.2344V63.4219ZM335.406 83.7188L332.781 93H304.047V92.0156C305.016 91.9531 305.797 91.8438 306.391 91.6875C307.016 91.5312 307.484 91.2812 307.797 90.9375C308.141 90.5938 308.375 90.125 308.5 89.5312C308.625 88.9375 308.688 88.1719 308.688 87.2344V63.4219C308.688 62.4844 308.625 61.7188 308.5 61.125C308.406 60.5312 308.188 60.0625 307.844 59.7188C307.5 59.375 307.016 59.125 306.391 58.9688C305.797 58.8125 305.016 58.7031 304.047 58.6406V57.5625H319.094V58.6406C318.031 58.7031 317.172 58.8125 316.516 58.9688C315.859 59.0938 315.359 59.3438 315.016 59.7188C314.672 60.0625 314.438 60.5312 314.312 61.125C314.188 61.7188 314.125 62.4844 314.125 63.4219V88.7344C314.125 89.2031 314.172 89.5938 314.266 89.9062C314.391 90.1875 314.625 90.4062 314.969 90.5625C315.312 90.7188 315.781 90.8281 316.375 90.8906C316.969 90.9219 317.766 90.9375 318.766 90.9375H322.328C324.609 90.9375 326.5 90.6719 328 90.1406C329.531 89.6094 330.781 88.7969 331.75 87.7031C332.125 87.2656 332.484 86.7188 332.828 86.0625C333.203 85.4062 333.609 84.625 334.047 83.7188H335.406ZM373.328 58.6406C372.703 58.6719 372.172 58.75 371.734 58.875C371.328 58.9688 370.953 59.2031 370.609 59.5781C370.266 59.9219 369.922 60.4219 369.578 61.0781C369.266 61.7031 368.875 62.5469 368.406 63.6094L356.547 93.6094H355.75L342.578 64.2188C341.984 63 341.469 62.0312 341.031 61.3125C340.625 60.5938 340.219 60.0469 339.812 59.6719C339.438 59.2656 339.016 59 338.547 58.875C338.109 58.7188 337.562 58.6406 336.906 58.6406V57.5625H351.203V58.6406L349.609 58.6875C347.953 58.7812 347.125 59.3438 347.125 60.375C347.125 60.5938 347.156 60.8438 347.219 61.125C347.281 61.375 347.391 61.7188 347.547 62.1562C347.703 62.5938 347.922 63.1406 348.203 63.7969C348.484 64.4531 348.859 65.2812 349.328 66.2812L357.391 84.375L365.219 64.7812C365.594 63.9375 365.859 63.1719 366.016 62.4844C366.203 61.7969 366.297 61.2344 366.297 60.7969C366.297 60.5469 366.219 60.2812 366.062 60C365.906 59.6875 365.703 59.4531 365.453 59.2969C365.109 59.0469 364.734 58.8906 364.328 58.8281C363.953 58.7344 363.312 58.6719 362.406 58.6406V57.5625H373.328V58.6406ZM412.562 93H398.922V92.0156H400.094C400.406 91.9844 400.656 91.9531 400.844 91.9219C401.062 91.8594 401.25 91.8125 401.406 91.7812C401.562 91.7188 401.719 91.6406 401.875 91.5469C402.125 91.3906 402.312 91.2031 402.438 90.9844C402.594 90.7344 402.672 90.4844 402.672 90.2344C402.672 89.3594 402.328 88.1406 401.641 86.5781L399.391 81.4688H385.422L382.938 87.7031C382.812 88.0469 382.703 88.4062 382.609 88.7812C382.547 89.125 382.516 89.4688 382.516 89.8125C382.516 90.5312 382.797 91.0781 383.359 91.4531C383.922 91.8281 384.859 92.0156 386.172 92.0156V93H375.531V92.0156C376.188 91.9844 376.75 91.875 377.219 91.6875C377.688 91.5 378.156 91.1094 378.625 90.5156C379.094 89.8906 379.594 89.0156 380.125 87.8906C380.688 86.7344 381.391 85.1719 382.234 83.2031L393.344 56.9531H394.375L407.734 87.3281C408.172 88.3281 408.547 89.125 408.859 89.7188C409.203 90.3125 409.547 90.7812 409.891 91.125C410.234 91.4375 410.609 91.6562 411.016 91.7812C411.453 91.9062 411.969 91.9844 412.562 92.0156V93ZM398.688 79.3125L392.5 64.5469L386.312 79.3125H398.688ZM230.065 116V98.5455H226.92V110.443H226.767L218.551 98.5455H215.722V116H218.884V104.111H219.028L227.253 116H230.065ZM232.377 116H235.752L237.196 111.696H243.758L245.204 116H248.579L242.425 98.5455H238.522L232.377 116ZM242.904 109.156L240.542 102.125H240.406L238.047 109.156H242.904ZM254.04 116V98.5455H250.878V116H254.04ZM257.464 98.5455V116H268.313V113.349H260.626V98.5455H257.464ZM277.011 116H282.925C284.698 116 286.215 115.651 287.477 114.952C288.744 114.253 289.712 113.25 290.383 111.943C291.059 110.636 291.397 109.074 291.397 107.256C291.397 105.443 291.062 103.886 290.391 102.585C289.721 101.284 288.761 100.287 287.511 99.5938C286.266 98.8949 284.778 98.5455 283.045 98.5455H277.011V116ZM282.772 113.264H280.173V101.281H282.866C284.048 101.281 285.036 101.503 285.832 101.946C286.633 102.384 287.238 103.045 287.647 103.932C288.056 104.812 288.261 105.92 288.261 107.256C288.261 108.591 288.056 109.705 287.647 110.597C287.238 111.483 286.627 112.151 285.815 112.599C285.002 113.043 283.988 113.264 282.772 113.264ZM294.401 98.5455V116H305.822V113.349H297.563V108.585H305.165V105.935H297.563V101.196H305.754V98.5455H294.401ZM317.46 101.605C318.05 102.02 318.386 102.599 318.465 103.344H321.508C321.491 102.361 321.215 101.491 320.681 100.736C320.147 99.9744 319.411 99.3807 318.474 98.9545C317.542 98.5227 316.457 98.3068 315.218 98.3068C313.996 98.3068 312.903 98.5227 311.937 98.9545C310.971 99.3807 310.207 99.9801 309.644 100.753C309.087 101.526 308.809 102.426 308.809 103.455C308.809 104.705 309.224 105.707 310.053 106.463C310.888 107.213 312.025 107.773 313.462 108.142L315.448 108.653C316.073 108.812 316.619 108.994 317.085 109.199C317.556 109.398 317.923 109.648 318.184 109.949C318.445 110.244 318.579 110.619 318.585 111.074C318.579 111.574 318.428 112.011 318.133 112.386C317.837 112.756 317.428 113.045 316.906 113.256C316.388 113.46 315.786 113.562 315.099 113.562C314.44 113.562 313.843 113.463 313.309 113.264C312.781 113.065 312.352 112.764 312.022 112.361C311.692 111.957 311.505 111.452 311.46 110.844H308.349C308.394 112.003 308.695 112.986 309.252 113.793C309.815 114.599 310.593 115.213 311.587 115.634C312.587 116.054 313.766 116.264 315.124 116.264C316.522 116.264 317.712 116.048 318.695 115.616C319.684 115.179 320.44 114.574 320.962 113.801C321.485 113.023 321.746 112.122 321.746 111.099C321.746 110.344 321.604 109.685 321.32 109.122C321.036 108.56 320.65 108.08 320.161 107.682C319.678 107.284 319.13 106.955 318.516 106.693C317.908 106.432 317.275 106.224 316.616 106.071L314.979 105.662C314.621 105.577 314.266 105.472 313.914 105.347C313.562 105.222 313.241 105.068 312.951 104.886C312.661 104.699 312.431 104.472 312.261 104.205C312.096 103.938 312.013 103.622 312.013 103.259C312.019 102.821 312.147 102.432 312.397 102.091C312.647 101.75 313.008 101.48 313.479 101.281C313.951 101.082 314.516 100.983 315.175 100.983C316.113 100.983 316.874 101.19 317.46 101.605ZM327.727 116V98.5455H324.565V116H327.727ZM342.256 102.884C342.506 103.247 342.702 103.659 342.844 104.119H346.066C345.935 103.261 345.66 102.477 345.239 101.767C344.819 101.057 344.282 100.443 343.629 99.9261C342.981 99.4091 342.239 99.0114 341.404 98.733C340.569 98.4489 339.668 98.3068 338.702 98.3068C337.56 98.3068 336.504 98.5114 335.532 98.9205C334.56 99.3239 333.714 99.9148 332.992 100.693C332.271 101.466 331.708 102.406 331.305 103.514C330.907 104.622 330.708 105.881 330.708 107.29C330.708 109.131 331.046 110.722 331.722 112.062C332.404 113.398 333.35 114.429 334.56 115.156C335.776 115.878 337.188 116.239 338.796 116.239C340.239 116.239 341.518 115.946 342.631 115.361C343.745 114.77 344.62 113.929 345.256 112.838C345.893 111.747 346.211 110.455 346.211 108.96V106.864H339.129V109.335H343.15C343.135 110.136 342.96 110.837 342.623 111.44C342.271 112.065 341.768 112.548 341.114 112.889C340.467 113.23 339.7 113.401 338.813 113.401C337.836 113.401 336.978 113.165 336.239 112.693C335.501 112.216 334.924 111.52 334.509 110.605C334.094 109.69 333.887 108.574 333.887 107.256C333.887 105.949 334.094 104.841 334.509 103.932C334.93 103.017 335.506 102.324 336.239 101.852C336.972 101.381 337.808 101.145 338.745 101.145C339.268 101.145 339.751 101.213 340.194 101.349C340.637 101.48 341.029 101.676 341.37 101.938C341.717 102.199 342.012 102.514 342.256 102.884ZM363.612 116V98.5455H360.467V110.443H360.314L352.098 98.5455H349.268V116H352.43V104.111H352.575L360.8 116H363.612ZM367.058 98.5455V116H378.478V113.349H370.219V108.585H377.822V105.935H370.219V101.196H378.41V98.5455H367.058ZM381.636 98.5455V116H384.798V109.608H388.015L391.445 116H394.974L391.198 109.09C391.312 109.044 391.423 108.995 391.531 108.943C392.451 108.494 393.147 107.861 393.619 107.043C394.096 106.219 394.335 105.247 394.335 104.128C394.335 103.014 394.099 102.04 393.627 101.205C393.161 100.364 392.471 99.7102 391.556 99.2443C390.647 98.7784 389.522 98.5455 388.181 98.5455H381.636ZM384.798 106.983H387.712C388.496 106.983 389.138 106.875 389.638 106.659C390.138 106.438 390.508 106.116 390.746 105.696C390.991 105.27 391.113 104.747 391.113 104.128C391.113 103.509 390.991 102.98 390.746 102.543C390.502 102.099 390.13 101.764 389.63 101.537C389.13 101.304 388.485 101.188 387.695 101.188H384.798V106.983Z" fill="#F9A606"/>
</svg>
