<svg width="500" height="200" viewBox="0 0 400 148" fill="none" xmlns="http://www.w3.org/2000/svg">
<path d="M62.58 61.44V62.84C61.0867 62.8867 59.9667 63.0733 59.22 63.4C58.4733 63.68 57.96 64.24 57.68 65.08C57.4467 65.8733 57.33 67.1333 57.33 68.86V103.58C57.33 105.26 57.4467 106.52 57.68 107.36C57.96 108.2 58.4733 108.76 59.22 109.04C59.9667 109.32 61.0867 109.507 62.58 109.6V111C61.2733 110.907 59.6167 110.86 57.61 110.86C55.65 110.813 53.6433 110.79 51.59 110.79C49.35 110.79 47.25 110.813 45.29 110.86C43.33 110.86 41.7433 110.907 40.53 111V109.6C42.1167 109.507 43.3067 109.32 44.1 109.04C44.94 108.76 45.5 108.2 45.78 107.36C46.06 106.52 46.2 105.26 46.2 103.58V65.71H46.69L29.33 111.07H28.21L9.31 65.99V99.52C9.31 102.087 9.45 104.07 9.73 105.47C10.01 106.823 10.6167 107.803 11.55 108.41C12.53 108.97 14.0467 109.367 16.1 109.6V111C15.2133 110.907 14.0467 110.86 12.6 110.86C11.1533 110.813 9.8 110.79 8.54 110.79C7.46667 110.79 6.37 110.813 5.25 110.86C4.13 110.86 3.19667 110.907 2.45 111V109.6C3.94333 109.367 5.06333 108.97 5.81 108.41C6.55667 107.85 7.04667 106.94 7.28 105.68C7.56 104.373 7.7 102.6 7.7 100.36V68.86C7.7 67.1333 7.56 65.8733 7.28 65.08C7.04667 64.24 6.53333 63.68 5.74 63.4C4.99333 63.0733 3.89667 62.8867 2.45 62.84V61.44C3.19667 61.4867 4.13 61.5333 5.25 61.58C6.37 61.6267 7.46667 61.65 8.54 61.65C10.5467 61.65 12.5067 61.6267 14.42 61.58C16.38 61.5333 18.1067 61.4867 19.6 61.44L34.3 96.93L32.55 98.54L46.62 61.65C47.4133 61.65 48.23 61.65 49.07 61.65C49.91 61.65 50.75 61.65 51.59 61.65C53.6433 61.65 55.65 61.6267 57.61 61.58C59.6167 61.5333 61.2733 61.4867 62.58 61.44ZM75.8029 111.49C73.7029 111.49 71.9529 111.093 70.5529 110.3C69.1529 109.507 68.1262 108.457 67.4729 107.15C66.8196 105.797 66.4929 104.327 66.4929 102.74C66.4929 100.733 66.9362 99.1 67.8229 97.84C68.7562 96.58 69.9462 95.5533 71.3929 94.76C72.8396 93.9667 74.3562 93.3133 75.9429 92.8C77.5762 92.2867 79.1162 91.7967 80.5629 91.33C82.0562 90.8167 83.2462 90.2333 84.1329 89.58C85.0662 88.88 85.5329 87.9933 85.5329 86.92V81.46C85.5329 80.2467 85.3229 79.1733 84.9029 78.24C84.5296 77.26 83.9229 76.5133 83.0829 76C82.2896 75.4867 81.2396 75.23 79.9329 75.23C78.9996 75.23 78.0662 75.37 77.1329 75.65C76.1996 75.8833 75.4296 76.3033 74.8229 76.91C76.1296 77.3767 77.1329 78.1 77.8329 79.08C78.5796 80.0133 78.9529 81.0867 78.9529 82.3C78.9529 83.8867 78.3929 85.1467 77.2729 86.08C76.1996 87.0133 74.9162 87.48 73.4229 87.48C71.7429 87.48 70.4596 86.9667 69.5729 85.94C68.7329 84.8667 68.3129 83.5833 68.3129 82.09C68.3129 80.7367 68.6396 79.6167 69.2929 78.73C69.9929 77.8433 70.9496 77.0033 72.1629 76.21C73.4696 75.4633 75.0329 74.88 76.8529 74.46C78.7196 74.04 80.7262 73.83 82.8729 73.83C85.0196 73.83 86.9562 74.0633 88.6829 74.53C90.4096 74.95 91.8562 75.7433 93.0229 76.91C94.0962 77.9833 94.7962 79.3133 95.1229 80.9C95.4496 82.44 95.6129 84.4 95.6129 86.78V105.82C95.6129 106.987 95.7296 107.803 95.9629 108.27C96.1962 108.69 96.5929 108.9 97.1529 108.9C97.5729 108.9 97.9696 108.783 98.3429 108.55C98.7629 108.317 99.2062 108.037 99.6729 107.71L100.373 108.9C99.3929 109.74 98.2496 110.393 96.9429 110.86C95.6829 111.28 94.2596 111.49 92.6729 111.49C90.9462 111.49 89.5696 111.257 88.5429 110.79C87.5162 110.277 86.7696 109.6 86.3029 108.76C85.8829 107.92 85.6729 106.94 85.6729 105.82C84.5529 107.593 83.1996 108.993 81.6129 110.02C80.0262 111 78.0896 111.49 75.8029 111.49ZM80.7729 107.01C81.7062 107.01 82.5462 106.8 83.2929 106.38C84.0862 105.913 84.8329 105.167 85.5329 104.14V89.79C85.1129 90.49 84.5296 91.12 83.7829 91.68C83.0362 92.24 82.2429 92.8233 81.4029 93.43C80.5629 93.99 79.7462 94.62 78.9529 95.32C78.2062 96.02 77.5996 96.8833 77.1329 97.91C76.6662 98.9367 76.4329 100.173 76.4329 101.62C76.4329 103.44 76.8296 104.793 77.6229 105.68C78.4162 106.567 79.4662 107.01 80.7729 107.01ZM111.473 56.75C113.433 56.75 114.973 57.24 116.093 58.22C117.26 59.1533 117.843 60.46 117.843 62.14C117.843 63.82 117.26 65.15 116.093 66.13C114.973 67.0633 113.433 67.53 111.473 67.53C109.513 67.53 107.95 67.0633 106.783 66.13C105.663 65.15 105.103 63.82 105.103 62.14C105.103 60.46 105.663 59.1533 106.783 58.22C107.95 57.24 109.513 56.75 111.473 56.75ZM116.933 74.04V104.49C116.933 106.45 117.26 107.78 117.913 108.48C118.613 109.18 119.78 109.53 121.413 109.53V111C120.573 110.953 119.267 110.907 117.493 110.86C115.72 110.767 113.923 110.72 112.103 110.72C110.283 110.72 108.44 110.767 106.573 110.86C104.707 110.907 103.307 110.953 102.373 111V109.53C104.007 109.53 105.15 109.18 105.803 108.48C106.503 107.78 106.853 106.45 106.853 104.49V82.44C106.853 80.34 106.527 78.8 105.873 77.82C105.267 76.7933 104.1 76.28 102.373 76.28V74.81C103.867 74.95 105.313 75.02 106.713 75.02C108.673 75.02 110.493 74.95 112.173 74.81C113.9 74.6233 115.487 74.3667 116.933 74.04ZM134.113 111.49C132.013 111.49 130.263 111.093 128.863 110.3C127.463 109.507 126.437 108.457 125.783 107.15C125.13 105.797 124.803 104.327 124.803 102.74C124.803 100.733 125.247 99.1 126.133 97.84C127.067 96.58 128.257 95.5533 129.703 94.76C131.15 93.9667 132.667 93.3133 134.253 92.8C135.887 92.2867 137.427 91.7967 138.873 91.33C140.367 90.8167 141.557 90.2333 142.443 89.58C143.377 88.88 143.843 87.9933 143.843 86.92V81.46C143.843 80.2467 143.633 79.1733 143.213 78.24C142.84 77.26 142.233 76.5133 141.393 76C140.6 75.4867 139.55 75.23 138.243 75.23C137.31 75.23 136.377 75.37 135.443 75.65C134.51 75.8833 133.74 76.3033 133.133 76.91C134.44 77.3767 135.443 78.1 136.143 79.08C136.89 80.0133 137.263 81.0867 137.263 82.3C137.263 83.8867 136.703 85.1467 135.583 86.08C134.51 87.0133 133.227 87.48 131.733 87.48C130.053 87.48 128.77 86.9667 127.883 85.94C127.043 84.8667 126.623 83.5833 126.623 82.09C126.623 80.7367 126.95 79.6167 127.603 78.73C128.303 77.8433 129.26 77.0033 130.473 76.21C131.78 75.4633 133.343 74.88 135.163 74.46C137.03 74.04 139.037 73.83 141.183 73.83C143.33 73.83 145.267 74.0633 146.993 74.53C148.72 74.95 150.167 75.7433 151.333 76.91C152.407 77.9833 153.107 79.3133 153.433 80.9C153.76 82.44 153.923 84.4 153.923 86.78V105.82C153.923 106.987 154.04 107.803 154.273 108.27C154.507 108.69 154.903 108.9 155.463 108.9C155.883 108.9 156.28 108.783 156.653 108.55C157.073 108.317 157.517 108.037 157.983 107.71L158.683 108.9C157.703 109.74 156.56 110.393 155.253 110.86C153.993 111.28 152.57 111.49 150.983 111.49C149.257 111.49 147.88 111.257 146.853 110.79C145.827 110.277 145.08 109.6 144.613 108.76C144.193 107.92 143.983 106.94 143.983 105.82C142.863 107.593 141.51 108.993 139.923 110.02C138.337 111 136.4 111.49 134.113 111.49ZM139.083 107.01C140.017 107.01 140.857 106.8 141.603 106.38C142.397 105.913 143.143 105.167 143.843 104.14V89.79C143.423 90.49 142.84 91.12 142.093 91.68C141.347 92.24 140.553 92.8233 139.713 93.43C138.873 93.99 138.057 94.62 137.263 95.32C136.517 96.02 135.91 96.8833 135.443 97.91C134.977 98.9367 134.743 100.173 134.743 101.62C134.743 103.44 135.14 104.793 135.933 105.68C136.727 106.567 137.777 107.01 139.083 107.01ZM184.764 73.83C186.257 73.83 187.471 74.1567 188.404 74.81C189.337 75.4167 190.014 76.21 190.434 77.19C190.901 78.17 191.134 79.1967 191.134 80.27C191.134 81.9967 190.621 83.42 189.594 84.54C188.614 85.6133 187.307 86.15 185.674 86.15C184.041 86.15 182.757 85.7533 181.824 84.96C180.937 84.12 180.494 83.0233 180.494 81.67C180.494 80.3633 180.774 79.29 181.334 78.45C181.941 77.5633 182.687 76.8167 183.574 76.21C182.921 76.0233 182.267 76.0467 181.614 76.28C180.727 76.42 179.887 76.7933 179.094 77.4C178.301 77.96 177.624 78.6833 177.064 79.57C176.504 80.41 176.061 81.3433 175.734 82.37C175.407 83.35 175.244 84.3067 175.244 85.24V103.79C175.244 106.03 175.781 107.547 176.854 108.34C177.974 109.133 179.631 109.53 181.824 109.53V111C180.751 110.953 179.187 110.907 177.134 110.86C175.081 110.767 172.934 110.72 170.694 110.72C168.827 110.72 166.937 110.767 165.024 110.86C163.111 110.907 161.664 110.953 160.684 111V109.53C162.317 109.53 163.461 109.18 164.114 108.48C164.814 107.78 165.164 106.45 165.164 104.49V82.44C165.164 80.34 164.837 78.8 164.184 77.82C163.577 76.7933 162.411 76.28 160.684 76.28V74.81C162.177 74.95 163.624 75.02 165.024 75.02C166.984 75.02 168.804 74.95 170.484 74.81C172.211 74.6233 173.797 74.3667 175.244 74.04V80.55C175.804 79.29 176.551 78.1467 177.484 77.12C178.417 76.0933 179.491 75.3 180.704 74.74C181.917 74.1333 183.271 73.83 184.764 73.83ZM203.02 111.49C200.92 111.49 199.17 111.093 197.77 110.3C196.37 109.507 195.343 108.457 194.69 107.15C194.036 105.797 193.71 104.327 193.71 102.74C193.71 100.733 194.153 99.1 195.04 97.84C195.973 96.58 197.163 95.5533 198.61 94.76C200.056 93.9667 201.573 93.3133 203.16 92.8C204.793 92.2867 206.333 91.7967 207.78 91.33C209.273 90.8167 210.463 90.2333 211.35 89.58C212.283 88.88 212.75 87.9933 212.75 86.92V81.46C212.75 80.2467 212.54 79.1733 212.12 78.24C211.746 77.26 211.14 76.5133 210.3 76C209.506 75.4867 208.456 75.23 207.15 75.23C206.216 75.23 205.283 75.37 204.35 75.65C203.416 75.8833 202.646 76.3033 202.04 76.91C203.346 77.3767 204.35 78.1 205.05 79.08C205.796 80.0133 206.17 81.0867 206.17 82.3C206.17 83.8867 205.61 85.1467 204.49 86.08C203.416 87.0133 202.133 87.48 200.64 87.48C198.96 87.48 197.676 86.9667 196.79 85.94C195.95 84.8667 195.53 83.5833 195.53 82.09C195.53 80.7367 195.856 79.6167 196.51 78.73C197.21 77.8433 198.166 77.0033 199.38 76.21C200.686 75.4633 202.25 74.88 204.07 74.46C205.936 74.04 207.943 73.83 210.09 73.83C212.236 73.83 214.173 74.0633 215.9 74.53C217.626 74.95 219.073 75.7433 220.24 76.91C221.313 77.9833 222.013 79.3133 222.34 80.9C222.666 82.44 222.83 84.4 222.83 86.78V105.82C222.83 106.987 222.946 107.803 223.18 108.27C223.413 108.69 223.81 108.9 224.37 108.9C224.79 108.9 225.186 108.783 225.56 108.55C225.98 108.317 226.423 108.037 226.89 107.71L227.59 108.9C226.61 109.74 225.466 110.393 224.16 110.86C222.9 111.28 221.476 111.49 219.89 111.49C218.163 111.49 216.786 111.257 215.76 110.79C214.733 110.277 213.986 109.6 213.52 108.76C213.1 107.92 212.89 106.94 212.89 105.82C211.77 107.593 210.416 108.993 208.83 110.02C207.243 111 205.306 111.49 203.02 111.49ZM207.99 107.01C208.923 107.01 209.763 106.8 210.51 106.38C211.303 105.913 212.05 105.167 212.75 104.14V89.79C212.33 90.49 211.746 91.12 211 91.68C210.253 92.24 209.46 92.8233 208.62 93.43C207.78 93.99 206.963 94.62 206.17 95.32C205.423 96.02 204.816 96.8833 204.35 97.91C203.883 98.9367 203.65 100.173 203.65 101.62C203.65 103.44 204.046 104.793 204.84 105.68C205.633 106.567 206.683 107.01 207.99 107.01ZM263.786 60.53C266.54 60.53 268.663 60.8333 270.156 61.44C271.65 62 272.933 62.6067 274.006 63.26C274.566 63.5867 275.01 63.8433 275.336 64.03C275.71 64.17 276.06 64.24 276.386 64.24C276.853 64.24 277.18 63.9833 277.366 63.47C277.6 62.9567 277.786 62.1867 277.926 61.16H279.536C279.49 62.0467 279.42 63.12 279.326 64.38C279.28 65.5933 279.233 67.2033 279.186 69.21C279.186 71.2167 279.186 73.8533 279.186 77.12H277.576C277.39 74.6933 276.83 72.3367 275.896 70.05C274.963 67.7633 273.633 65.8967 271.906 64.45C270.226 62.9567 268.15 62.21 265.676 62.21C263.436 62.21 261.593 62.84 260.146 64.1C258.7 65.36 257.976 67.11 257.976 69.35C257.976 71.2167 258.443 72.8267 259.376 74.18C260.31 75.4867 261.663 76.77 263.436 78.03C265.256 79.29 267.45 80.8067 270.016 82.58C272.256 84.0267 274.263 85.4733 276.036 86.92C277.81 88.3667 279.233 90 280.306 91.82C281.38 93.64 281.916 95.81 281.916 98.33C281.916 101.41 281.1 103.953 279.466 105.96C277.88 107.967 275.78 109.483 273.166 110.51C270.553 111.49 267.683 111.98 264.556 111.98C261.663 111.98 259.353 111.7 257.626 111.14C255.9 110.58 254.453 109.997 253.286 109.39C252.26 108.737 251.466 108.41 250.906 108.41C250.44 108.41 250.09 108.667 249.856 109.18C249.67 109.693 249.506 110.463 249.366 111.49H247.756C247.85 110.37 247.896 109.063 247.896 107.57C247.943 106.077 247.966 104.14 247.966 101.76C248.013 99.3333 248.036 96.2767 248.036 92.59H249.646C249.833 95.67 250.346 98.5633 251.186 101.27C252.073 103.93 253.403 106.077 255.176 107.71C256.996 109.343 259.4 110.16 262.386 110.16C264.02 110.16 265.466 109.88 266.726 109.32C268.033 108.713 269.083 107.827 269.876 106.66C270.67 105.493 271.066 104.047 271.066 102.32C271.066 100.36 270.6 98.6567 269.666 97.21C268.78 95.7633 267.543 94.41 265.956 93.15C264.416 91.89 262.62 90.6067 260.566 89.3C258.373 87.8533 256.32 86.4067 254.406 84.96C252.493 83.5133 250.953 81.8567 249.786 79.99C248.666 78.1233 248.106 75.9067 248.106 73.34C248.106 70.4 248.83 67.9967 250.276 66.13C251.77 64.2167 253.706 62.8167 256.086 61.93C258.513 60.9967 261.08 60.53 263.786 60.53ZM295.565 56.75C297.525 56.75 299.065 57.24 300.185 58.22C301.352 59.1533 301.935 60.46 301.935 62.14C301.935 63.82 301.352 65.15 300.185 66.13C299.065 67.0633 297.525 67.53 295.565 67.53C293.605 67.53 292.042 67.0633 290.875 66.13C289.755 65.15 289.195 63.82 289.195 62.14C289.195 60.46 289.755 59.1533 290.875 58.22C292.042 57.24 293.605 56.75 295.565 56.75ZM301.025 74.04V104.49C301.025 106.45 301.352 107.78 302.005 108.48C302.705 109.18 303.872 109.53 305.505 109.53V111C304.665 110.953 303.358 110.907 301.585 110.86C299.812 110.767 298.015 110.72 296.195 110.72C294.375 110.72 292.532 110.767 290.665 110.86C288.798 110.907 287.398 110.953 286.465 111V109.53C288.098 109.53 289.242 109.18 289.895 108.48C290.595 107.78 290.945 106.45 290.945 104.49V82.44C290.945 80.34 290.618 78.8 289.965 77.82C289.358 76.7933 288.192 76.28 286.465 76.28V74.81C287.958 74.95 289.405 75.02 290.805 75.02C292.765 75.02 294.585 74.95 296.265 74.81C297.992 74.6233 299.578 74.3667 301.025 74.04ZM322.825 56.19V104.49C322.825 106.45 323.152 107.78 323.805 108.48C324.505 109.18 325.672 109.53 327.305 109.53V111C326.419 110.953 325.089 110.907 323.315 110.86C321.542 110.767 319.745 110.72 317.925 110.72C316.105 110.72 314.262 110.767 312.395 110.86C310.575 110.907 309.199 110.953 308.265 111V109.53C309.899 109.53 311.042 109.18 311.695 108.48C312.395 107.78 312.745 106.45 312.745 104.49V64.59C312.745 62.49 312.419 60.95 311.765 59.97C311.159 58.9433 309.992 58.43 308.265 58.43V56.96C309.759 57.1 311.205 57.17 312.605 57.17C314.519 57.17 316.339 57.1 318.065 56.96C319.792 56.7733 321.379 56.5167 322.825 56.19ZM364.094 74.81V76.21C363.207 76.4433 362.367 77.0033 361.574 77.89C360.78 78.73 360.01 80.1767 359.264 82.23L349.044 111.14C348.297 111.093 347.527 111.07 346.734 111.07C345.987 111.07 345.24 111.093 344.494 111.14L332.034 80.2C331.287 78.38 330.54 77.2833 329.794 76.91C329.094 76.49 328.487 76.28 327.974 76.28V74.81C329.467 74.9033 331.007 74.9967 332.594 75.09C334.227 75.1367 336 75.16 337.914 75.16C339.36 75.16 340.877 75.1367 342.464 75.09C344.097 74.9967 345.614 74.9033 347.014 74.81V76.28C346.034 76.28 345.147 76.3267 344.354 76.42C343.607 76.5133 343.094 76.8167 342.814 77.33C342.534 77.8433 342.58 78.7533 342.954 80.06L351.144 101.76L350.444 102.74L355.974 87.41C356.86 84.89 357.234 82.8367 357.094 81.25C356.954 79.6167 356.44 78.4033 355.554 77.61C354.667 76.77 353.477 76.3033 351.984 76.21V74.81C352.684 74.8567 353.43 74.9033 354.224 74.95C355.064 74.95 355.857 74.9733 356.604 75.02C357.397 75.02 358.097 75.02 358.704 75.02C359.637 75.02 360.617 74.9967 361.644 74.95C362.67 74.9033 363.487 74.8567 364.094 74.81ZM374.67 111.49C372.57 111.49 370.82 111.093 369.42 110.3C368.02 109.507 366.993 108.457 366.34 107.15C365.687 105.797 365.36 104.327 365.36 102.74C365.36 100.733 365.803 99.1 366.69 97.84C367.623 96.58 368.813 95.5533 370.26 94.76C371.707 93.9667 373.223 93.3133 374.81 92.8C376.443 92.2867 377.983 91.7967 379.43 91.33C380.923 90.8167 382.113 90.2333 383 89.58C383.933 88.88 384.4 87.9933 384.4 86.92V81.46C384.4 80.2467 384.19 79.1733 383.77 78.24C383.397 77.26 382.79 76.5133 381.95 76C381.157 75.4867 380.107 75.23 378.8 75.23C377.867 75.23 376.933 75.37 376 75.65C375.067 75.8833 374.297 76.3033 373.69 76.91C374.997 77.3767 376 78.1 376.7 79.08C377.447 80.0133 377.82 81.0867 377.82 82.3C377.82 83.8867 377.26 85.1467 376.14 86.08C375.067 87.0133 373.783 87.48 372.29 87.48C370.61 87.48 369.327 86.9667 368.44 85.94C367.6 84.8667 367.18 83.5833 367.18 82.09C367.18 80.7367 367.507 79.6167 368.16 78.73C368.86 77.8433 369.817 77.0033 371.03 76.21C372.337 75.4633 373.9 74.88 375.72 74.46C377.587 74.04 379.593 73.83 381.74 73.83C383.887 73.83 385.823 74.0633 387.55 74.53C389.277 74.95 390.723 75.7433 391.89 76.91C392.963 77.9833 393.663 79.3133 393.99 80.9C394.317 82.44 394.48 84.4 394.48 86.78V105.82C394.48 106.987 394.597 107.803 394.83 108.27C395.063 108.69 395.46 108.9 396.02 108.9C396.44 108.9 396.837 108.783 397.21 108.55C397.63 108.317 398.073 108.037 398.54 107.71L399.24 108.9C398.26 109.74 397.117 110.393 395.81 110.86C394.55 111.28 393.127 111.49 391.54 111.49C389.813 111.49 388.437 111.257 387.41 110.79C386.383 110.277 385.637 109.6 385.17 108.76C384.75 107.92 384.54 106.94 384.54 105.82C383.42 107.593 382.067 108.993 380.48 110.02C378.893 111 376.957 111.49 374.67 111.49ZM379.64 107.01C380.573 107.01 381.413 106.8 382.16 106.38C382.953 105.913 383.7 105.167 384.4 104.14V89.79C383.98 90.49 383.397 91.12 382.65 91.68C381.903 92.24 381.11 92.8233 380.27 93.43C379.43 93.99 378.613 94.62 377.82 95.32C377.073 96.02 376.467 96.8833 376 97.91C375.533 98.9367 375.3 100.173 375.3 101.62C375.3 103.44 375.697 104.793 376.49 105.68C377.283 106.567 378.333 107.01 379.64 107.01Z" fill="#F2F6F6"/>
<path d="M176.793 14.3636H188.17L200.188 43.6818H200.699L212.716 14.3636H224.094V58H215.145V29.598H214.783L203.49 57.7869H197.396L186.104 29.4915H185.741V58H176.793V14.3636ZM237.128 70.2727C235.978 70.2727 234.898 70.1804 233.89 69.9957C232.895 69.8253 232.071 69.6051 231.418 69.3352L233.463 62.5597C234.529 62.8864 235.488 63.0639 236.34 63.0923C237.206 63.1207 237.952 62.9219 238.577 62.4957C239.216 62.0696 239.735 61.3452 240.132 60.3224L240.665 58.9375L228.925 25.2727H238.471L245.246 49.3068H245.587L252.426 25.2727H262.036L249.316 61.5369C248.705 63.2983 247.874 64.8324 246.823 66.1392C245.786 67.4602 244.472 68.4759 242.881 69.1861C241.29 69.9105 239.373 70.2727 237.128 70.2727Z" fill="#F2F6F6"/>
<path d="M106.943 119.182V141H104.386L92.4972 123.869H92.2841V141H89.642V119.182H92.1989L104.131 136.355H104.344V119.182H106.943ZM113.125 141H110.355L118.366 119.182H121.094L129.105 141H126.335L119.815 122.634H119.645L113.125 141ZM114.148 132.477H125.312V134.821H114.148V132.477ZM135.145 119.182V141H132.503V119.182H135.145ZM140.443 141V119.182H143.085V138.656H153.227V141H140.443ZM172.488 141H165.755V119.182H172.787C174.903 119.182 176.714 119.619 178.22 120.492C179.725 121.359 180.88 122.605 181.682 124.232C182.485 125.851 182.886 127.79 182.886 130.048C182.886 132.321 182.481 134.278 181.672 135.918C180.862 137.552 179.683 138.809 178.135 139.69C176.586 140.563 174.704 141 172.488 141ZM168.397 138.656H172.318C174.122 138.656 175.617 138.308 176.803 137.612C177.989 136.916 178.873 135.925 179.456 134.64C180.038 133.354 180.329 131.824 180.329 130.048C180.329 128.287 180.042 126.771 179.466 125.499C178.891 124.221 178.032 123.241 176.888 122.559C175.745 121.87 174.321 121.526 172.616 121.526H168.397V138.656ZM187.318 141V119.182H200.485V121.526H189.96V128.898H199.804V131.241H189.96V138.656H200.656V141H187.318ZM217.179 124.636C217.051 123.557 216.533 122.719 215.624 122.122C214.715 121.526 213.6 121.227 212.279 121.227C211.313 121.227 210.468 121.384 209.743 121.696C209.026 122.009 208.465 122.438 208.06 122.985C207.662 123.532 207.463 124.153 207.463 124.849C207.463 125.432 207.602 125.933 207.879 126.352C208.163 126.763 208.525 127.108 208.966 127.385C209.406 127.655 209.868 127.879 210.35 128.056C210.833 128.227 211.277 128.365 211.682 128.472L213.898 129.068C214.466 129.217 215.098 129.423 215.794 129.686C216.498 129.949 217.169 130.308 217.808 130.762C218.454 131.21 218.987 131.785 219.406 132.488C219.825 133.191 220.034 134.054 220.034 135.077C220.034 136.256 219.725 137.321 219.108 138.273C218.497 139.224 217.602 139.981 216.423 140.542C215.251 141.103 213.827 141.384 212.151 141.384C210.588 141.384 209.235 141.131 208.092 140.627C206.956 140.123 206.061 139.42 205.407 138.518C204.761 137.616 204.395 136.568 204.31 135.375H207.037C207.108 136.199 207.385 136.881 207.868 137.42C208.358 137.953 208.976 138.351 209.722 138.614C210.475 138.869 211.284 138.997 212.151 138.997C213.159 138.997 214.065 138.834 214.868 138.507C215.67 138.173 216.306 137.712 216.775 137.122C217.243 136.526 217.478 135.83 217.478 135.034C217.478 134.31 217.275 133.72 216.87 133.266C216.466 132.811 215.933 132.442 215.272 132.158C214.612 131.874 213.898 131.625 213.131 131.412L210.446 130.645C208.742 130.155 207.392 129.455 206.398 128.546C205.404 127.637 204.907 126.447 204.907 124.977C204.907 123.756 205.237 122.69 205.897 121.781C206.565 120.865 207.46 120.155 208.582 119.651C209.711 119.139 210.972 118.884 212.364 118.884C213.77 118.884 215.02 119.136 216.114 119.64C217.208 120.137 218.074 120.819 218.713 121.685C219.36 122.552 219.701 123.536 219.736 124.636H217.179ZM227.02 119.182V141H224.378V119.182H227.02ZM247.233 126C246.998 125.283 246.689 124.64 246.306 124.072C245.929 123.496 245.478 123.006 244.953 122.602C244.434 122.197 243.845 121.888 243.184 121.675C242.524 121.462 241.799 121.355 241.011 121.355C239.718 121.355 238.543 121.689 237.485 122.357C236.426 123.024 235.585 124.008 234.96 125.308C234.335 126.607 234.022 128.202 234.022 130.091C234.022 131.98 234.338 133.575 234.971 134.874C235.603 136.174 236.458 137.158 237.538 137.825C238.618 138.493 239.832 138.827 241.181 138.827C242.431 138.827 243.532 138.56 244.484 138.028C245.443 137.488 246.189 136.728 246.721 135.748C247.261 134.761 247.531 133.599 247.531 132.264L248.341 132.435H241.778V130.091H250.088V132.435C250.088 134.232 249.704 135.794 248.937 137.122C248.177 138.45 247.126 139.48 245.784 140.212C244.449 140.936 242.914 141.298 241.181 141.298C239.25 141.298 237.552 140.844 236.089 139.935C234.633 139.026 233.497 137.733 232.68 136.057C231.87 134.381 231.466 132.392 231.466 130.091C231.466 128.365 231.696 126.813 232.158 125.435C232.627 124.05 233.287 122.871 234.14 121.898C234.992 120.925 236 120.18 237.165 119.661C238.33 119.143 239.612 118.884 241.011 118.884C242.162 118.884 243.234 119.058 244.228 119.406C245.23 119.746 246.121 120.233 246.902 120.865C247.691 121.49 248.348 122.239 248.873 123.113C249.399 123.979 249.761 124.942 249.96 126H247.233ZM271.914 119.182V141H269.357L257.468 123.869H257.255V141H254.613V119.182H257.17L269.101 136.355H269.314V119.182H271.914ZM277.201 141V119.182H290.368V121.526H279.843V128.898H289.686V131.241H279.843V138.656H290.539V141H277.201ZM295.13 141V119.182H302.502C304.207 119.182 305.606 119.473 306.7 120.055C307.794 120.631 308.603 121.423 309.129 122.431C309.654 123.44 309.917 124.587 309.917 125.872C309.917 127.158 309.654 128.298 309.129 129.292C308.603 130.286 307.797 131.067 306.711 131.636C305.624 132.197 304.235 132.477 302.545 132.477H296.579V130.091H302.46C303.625 130.091 304.562 129.92 305.272 129.58C305.99 129.239 306.508 128.756 306.828 128.131C307.154 127.499 307.318 126.746 307.318 125.872C307.318 124.999 307.154 124.235 306.828 123.582C306.501 122.928 305.979 122.424 305.262 122.069C304.544 121.707 303.596 121.526 302.417 121.526H297.772V141H295.13ZM305.4 131.199L310.77 141H307.701L302.417 131.199H305.4Z" fill="#F2F6F6"/>
</svg>
